<svg xmlns="http://www.w3.org/2000/svg" xmlns:xlink="http://www.w3.org/1999/xlink" width="63" height="63" viewBox="0 0 63 63">
  <defs>
    <filter id="Ellipse_8" x="5" y="5" width="53" height="53" filterUnits="userSpaceOnUse">
      <feOffset dy="3" input="SourceAlpha"/>
      <feGaussianBlur stdDeviation="3" result="blur"/>
      <feFlood flood-opacity="0.161"/>
      <feComposite operator="in" in2="blur"/>
      <feComposite in="SourceGraphic"/>
    </filter>
    <filter id="Path_1789" x="0" y="0" width="63" height="63" filterUnits="userSpaceOnUse">
      <feOffset dy="3" input="SourceAlpha"/>
      <feGaussianBlur stdDeviation="3" result="blur-2"/>
      <feFlood flood-opacity="0.161"/>
      <feComposite operator="in" in2="blur-2"/>
      <feComposite in="SourceGraphic"/>
    </filter>
    <filter id="Ellipse_4" x="12" y="12" width="39" height="39" filterUnits="userSpaceOnUse">
      <feOffset dy="3" input="SourceAlpha"/>
      <feGaussianBlur stdDeviation="3" result="blur-3"/>
      <feFlood flood-opacity="0.161"/>
      <feComposite operator="in" in2="blur-3"/>
      <feComposite in="SourceGraphic"/>
    </filter>
  </defs>
  <g id="shops_location" data-name="shops location" transform="translate(12.784 -223.76)">
    <g transform="matrix(1, 0, 0, 1, -12.78, 223.76)" filter="url(#Ellipse_8)">
      <circle id="Ellipse_8-2" data-name="Ellipse 8" cx="17.5" cy="17.5" r="17.5" transform="translate(14 11)" fill="#f26f21" opacity="0.13"/>
    </g>
    <g transform="matrix(1, 0, 0, 1, -12.78, 223.76)" filter="url(#Path_1789)">
      <path id="Path_1789-2" data-name="Path 1789" d="M22.5,0A22.5,22.5,0,1,1,0,22.5,22.5,22.5,0,0,1,22.5,0Z" transform="translate(9 6)" fill="#f26f21" opacity="0.07"/>
    </g>
    <g transform="matrix(1, 0, 0, 1, -12.78, 223.76)" filter="url(#Ellipse_4)">
      <g id="Ellipse_4-2" data-name="Ellipse 4" transform="translate(21 18)" fill="#f26f21" stroke="#fff" stroke-width="3">
        <circle cx="10.5" cy="10.5" r="10.5" stroke="none"/>
        <circle cx="10.5" cy="10.5" r="9" fill="none"/>
      </g>
    </g>
  </g>
</svg>
